<svg width="16" height="17" viewBox="0 0 16 17" fill="none" xmlns="http://www.w3.org/2000/svg">
<path fill-rule="evenodd" clip-rule="evenodd" d="M9.752 1.32904C11.1832 -0.125591 13.3448 -0.0403614 14.8908 1.53105C15.606 2.25858 16 3.2258 16 4.2547C16 5.28401 15.606 6.25124 14.8912 6.97835L11.7118 10.2093C10.7298 11.2081 9.697 11.7125 8.7192 11.7125C7.9206 11.7125 7.1588 11.3761 6.4914 10.6975C6.1028 10.3025 6.1004 9.65938 6.4864 9.26151C6.8724 8.86364 7.4998 8.86118 7.8884 9.25639L7.88845 9.25644C8.17947 9.55231 8.86148 10.2457 10.3152 8.76817L13.4946 5.53724C13.8316 5.19448 14.0172 4.73903 14.0172 4.25491C14.0172 3.77098 13.8318 3.31554 13.4942 2.97278C12.861 2.32926 11.8902 2.01661 11.1488 2.77077L10.14 3.79639C9.7514 4.1916 9.1238 4.18935 8.7378 3.79127C8.3518 3.39319 8.3542 2.75049 8.7428 2.35528L9.752 1.32904ZM5.05 14.1202L5.8596 13.2966C6.2482 12.9014 6.8764 12.9036 7.2618 13.3013C7.6478 13.6994 7.6456 14.3423 7.2572 14.7373L6.447 15.5611C5.7108 16.3093 4.7442 16.683 3.7774 16.683C2.8108 16.683 1.8446 16.3093 1.1088 15.5615C0.3936 14.8344 0 13.8676 0 12.8383C0 11.809 0.3936 10.8419 1.1086 10.1148L4.0888 7.08591C5.9416 5.20267 8.069 4.93223 9.5084 6.39547C9.897 6.79048 9.8994 7.43359 9.5134 7.83146C9.1276 8.22934 8.5 8.232 8.1114 7.83659C7.2646 6.9763 6.1028 7.9001 5.4852 8.52743L2.5052 11.5561C2.1684 11.8989 1.983 12.3544 1.983 12.8383C1.983 13.3222 2.1682 13.7774 2.5054 14.1202C3.2068 14.8334 4.3482 14.8328 5.05 14.1202Z" fill="#7C7C7C"/>
</svg>
