<svg width="16" height="16" xmlns="http://www.w3.org/2000/svg">

 <g>
  <rect fill="none" id="canvas_background" height="16" width="16" y="0" x="0"/>
 </g>
 <g>
  <g stroke="null" id="svg_1">
   <path stroke="null" id="svg_2" fill="#ED1F24" d="m15.99599,14.98698c0,0.55245 -0.44805,1.00153 -0.99925,1.00153l-13.98954,0c-0.55113,0 -0.99925,-0.44908 -0.99925,-1.00153l0,-14.02157c0,-0.55242 0.44812,-1.00153 0.99925,-1.00153l13.98954,0c0.55119,0 0.99925,0.44911 0.99925,1.00153l0,14.02157z"/>
  </g>
  <path stroke="null" id="path40" fill="#FFFFFF" d="m10.76295,1.94888l-1.86921,0c-1.8367,0 -3.3943,1.37151 -3.3943,4.03424c0,1.5974 0.75427,2.77517 2.09861,3.35616l-2.50858,4.45371c-0.0821,0.14538 0,0.25814 0.13112,0.25814l1.16429,0c0.09828,0 0.1642,-0.03218 0.19696,-0.11276l2.27915,-4.37312l0.81983,0l0,4.37312c0,0.04808 0.04902,0.11276 0.11461,0.11276l1.01683,0c0.09828,0 0.13116,-0.04841 0.13116,-0.12875l0,-11.81213c-0.00004,-0.11296 -0.06564,-0.16137 -0.18046,-0.16137zm-1.08218,6.58377l-0.68867,0c-1.08214,0 -2.13149,-0.77453 -2.13149,-2.71085c0,-2.01738 0.98374,-2.84028 1.98387,-2.84028l0.83633,0l0,5.55113l-0.00004,0z"/>
 </g>
</svg>